#!OML:ASF E:\Mandelcareful walks\Project 1\Capture day 1\Session 1\Subject1.ASF
:FULLY-SPECIFIED
:DEGREES
241
root -9.27442 2.92595 0.739016 190.75 11.7768 -123.151
lowerback 41.497 3.51098 2.97415
upperback 20.3424 13.4005 4.9868
thorax 2.62607 9.48196 -0.397574
lowerneck -24.0388 6.41785 3.95854
upperneck 39.5569 7.83401 11.4127
head 18.7305 6.15877 6.80127
rclavicle 4.45278e-014 -3.65764e-014
rhumerus 23.94 18.6947 -25.0199
rradius 101.175
rwrist 0.88755
rhand -7.51516 -25.1866
rfingers 7.12502
rthumb 18.3753 -54.3387
lclavicle 4.45278e-014 -3.65764e-014
lhumerus 29.1303 4.58769 27.9808
lradius 88.7563
lwrist -11.8466
lhand -13.8769 -9.63286
lfingers 7.12502
lthumb 12.2478 19.9885
rfemur -44.9834 -22.1565 -2.01351
rtibia 88.5541
rfoot 7.8209 5.82724
rtoes -11.1765
lfemur -81.4365 -12.3483 -30.9854
ltibia 51.5898
lfoot 17.492 8.11091
ltoes 2.3009
242
root -9.23462 2.9254 0.750842 191.669 11.9589 -123.428
lowerback 40.5428 3.72373 2.85342
upperback 20.6582 13.5357 5.23421
thorax 3.00406 9.51614 -0.0549157
lowerneck -23.4236 6.27621 4.49736
upperneck 38.5866 7.52785 10.2594
head 18.1418 5.91508 5.90277
rclavicle -6.99722e-014 -3.18055e-014
rhumerus 23.7445 18.3537 -24.6556
rradius 100.727
rwrist 0.927343
rhand -7.61027 -24.5105
rfingers 7.12502
rthumb 18.2838 -53.6712
lclavicle -6.99722e-014 -3.18055e-014
lhumerus 28.7863 5.09654 28.6099
lradius 88.8184
lwrist -11.8732
lhand -14.8422 -9.80571
lfingers 7.12502
lthumb 11.3169 19.869
rfemur -46.5722 -22.8786 -1.91365
rtibia 89.1333
rfoot 7.93916 6.14468
rtoes -10.9682
lfemur -82.3286 -12.3984 -31.2949
ltibia 51.1218
lfoot 17.3699 8.22908
ltoes 1.50513
243
root -9.20611 2.92622 0.755681 192.297 11.9991 -123.585
lowerback 40.1535 3.73752 2.97742
upperback 20.8152 13.5872 5.45309
thorax 3.25611 9.5419 0.159515
lowerneck -24.7129 6.16549 3.17172
upperneck 38.9322 7.39373 11.4458
head 18.5213 5.8366 6.80497
rclavicle 5.08889e-014 -5.24792e-014
rhumerus 23.6759 18.0621 -24.2627
rradius 100.178
rwrist 0.783808
rhand -7.66305 -23.6947
rfingers 7.12502
rthumb 18.233 -52.8601
lclavicle 5.08889e-014 -5.24792e-014
lhumerus 28.3672 5.52675 29.1722
lradius 88.7548
lwrist -11.8636
lhand -16.0787 -10.2174
lfingers 7.12502
lthumb 10.1242 19.519
rfemur -47.5884 -23.5644 -1.80037
rtibia 89.5922
rfoot 7.97029 6.48948
rtoes -10.5348
lfemur -82.6336 -12.4407 -31.7245
ltibia 50.4897
lfoot 16.9711 8.36168
ltoes 0.75191
244
root -9.18126 2.92282 0.757936 192.806 11.9644 -123.773
lowerback 39.835 3.56746 3.24719
upperback 20.9473 13.4576 5.4963
thorax 3.52866 9.50354 0.178148
lowerneck -23.9971 6.1722 3.61382
upperneck 38.0015 7.29795 10.7024
head 17.8894 5.73559 6.15911
rclavicle -7.31528e-014 -4.77083e-015
rhumerus 23.8168 17.8424 -24.1463
rradius 99.6235
rwrist 0.551303
rhand -7.68912 -23.1369
rfingers 7.12502
rthumb 18.2079 -52.3047
lclavicle -7.31528e-014 -4.77083e-015
lhumerus 27.8657 6.02837 29.4511
lradius 88.5823
lwrist -11.6365
lhand -17.2431 -11.0147
lfingers 7.12502
lthumb 9.00075 18.7733
rfemur -48.4205 -24.3553 -1.78635
rtibia 90.0097
rfoot 7.97948 6.77868
rtoes -10.1237
lfemur -82.5371 -12.4215 -32.5353
ltibia 49.6201
lfoot 16.2996 8.55561
ltoes 0.29323
245
root -9.15755 2.92406 0.762477 193.281 11.9386 -123.838
lowerback 39.6241 3.40475 3.58701
upperback 20.989 13.3466 5.48659
thorax 3.69442 9.47593 0.0767545
lowerneck -24.7963 6.15403 3.00599
upperneck 38.318 7.32367 11.1634
head 18.1998 5.71589 6.58739
rclavicle 9.54166e-014 4.29375e-014
rhumerus 23.9579 17.822 -24.2083
rradius 99.1172
rwrist 0.676788
rhand -7.71899 -23.1263
rfingers 7.12502
rthumb 18.1792 -52.2968
lclavicle 9.54166e-014 4.29375e-014
lhumerus 27.3311 6.37611 29.5238
lradius 88.4775
lwrist -11.2402
lhand -18.1344 -11.6552
lfingers 7.12502
lthumb 8.14061 18.168
rfemur -49.1164 -24.9688 -1.64079
rtibia 90.3091
rfoot 7.96742 6.77475
rtoes -9.41564
lfemur -82.6295 -12.2295 -33.4546
ltibia 49.6461
lfoot 14.5811 8.87282
ltoes 0.203594
